<svg width="34" height="41" viewBox="0 0 34 41" fill="none" xmlns="http://www.w3.org/2000/svg">
<path d="M9.52808 14.9414C8.96614 14.9414 8.94312 17.0357 8.94312 17.4762" stroke="white" stroke-width="1.75278" stroke-linecap="round"/>
<path fill-rule="evenodd" clip-rule="evenodd" d="M18.015 9.6703C17.6998 9.37226 17.2724 9.20483 16.8268 9.20483C16.3812 9.20483 15.9538 9.37226 15.6386 9.6703L3.8743 20.7988L0.513072 23.9784C0.352556 24.125 0.224523 24.3005 0.136444 24.4944C0.0483645 24.6884 0.00200258 24.897 6.34545e-05 25.1081C-0.00187567 25.3192 0.0406468 25.5285 0.12515 25.7239C0.209652 25.9193 0.334443 26.0968 0.492241 26.2461C0.650038 26.3953 0.837682 26.5134 1.04422 26.5933C1.25077 26.6732 1.47207 26.7135 1.69522 26.7116C1.91837 26.7098 2.1389 26.666 2.34394 26.5826C2.54898 26.4993 2.73443 26.3782 2.88946 26.2264L3.38188 25.7605V36.2309C3.38188 37.4958 3.91308 38.7089 4.8586 39.6033C5.80413 40.4978 7.08655 41.0003 8.42373 41.0003H25.2299C26.5671 41.0003 27.8495 40.4978 28.795 39.6033C29.7405 38.7089 30.2717 37.4958 30.2717 36.2309V25.7605L30.7641 26.2264C31.0811 26.5159 31.5056 26.6762 31.9463 26.6726C32.3869 26.6689 32.8085 26.5017 33.1201 26.207C33.4317 25.9122 33.6084 25.5135 33.6122 25.0967C33.6161 24.6798 33.4467 24.2782 33.1405 23.9784L18.015 9.6703Z" fill="white"/>
<path d="M6.99277 20.2064C6.99277 18.939 6.99277 17.6716 6.99277 16.4041C6.99277 15.8555 6.77222 15.3818 6.7057 14.8497C6.64906 14.3965 6.83864 14.4001 7.19317 14.2051C7.73277 13.9083 8.24116 13.5112 8.84515 13.3602C9.09845 13.2968 9.41917 13.0894 9.67385 13.0894C10.059 13.0894 10.2152 14.2665 10.3076 14.5301C10.5455 15.2088 10.5003 16.2058 10.8925 16.7941" stroke="white" stroke-width="1.75278" stroke-linecap="round"/>
<path d="M6.89515 8.70201C6.89515 7.95241 6.70983 6.95593 6.91681 6.243C7.09132 5.64192 8.56694 5.37105 9.08334 5.2464C10.0516 5.01269 10.9317 4.85461 11.6236 4.06022C12.3858 3.18507 12.4378 2.08301 12.2573 1" stroke="white" stroke-width="1.75278" stroke-linecap="round"/>
<path d="M22.7112 34.6409V36.1037" stroke="#1C474A" stroke-width="1.16852" stroke-linecap="round"/>
<path d="M25.9216 34.7441V36.0549" stroke="#1C474A" stroke-width="1.75278" stroke-linecap="round"/>
</svg>
