<svg width="31" height="40" viewBox="0 0 31 40" fill="none" xmlns="http://www.w3.org/2000/svg">
<g clip-path="url(#clip0_297_2803)">
<path d="M18.3589 28.1377C18.5683 28.2185 18.7665 28.2963 18.9659 28.3721C20.9785 29.1375 22.9917 29.901 25.003 30.6702C25.1832 30.7392 25.3218 30.774 25.4871 30.6099C26.6651 29.4416 27.6761 28.1539 28.4143 26.6592C29.1829 25.1035 29.7303 23.4739 30.1311 21.7883C30.4107 20.61 30.594 19.4193 30.6617 18.2125C30.7518 16.6009 30.5809 15.011 30.1739 13.451C29.8844 12.3424 29.3811 11.3395 28.5659 10.5188C28.07 10.0195 27.4791 9.66011 26.7646 9.59731C25.5871 9.49285 24.4705 9.71855 23.4583 10.3484C22.2573 11.0958 21.3364 12.1229 20.5821 13.3068C19.9738 14.2612 19.5009 15.284 19.0728 16.3285C18.5229 17.6715 18.2421 19.0674 18.2949 20.5192C18.3141 21.0477 18.3825 21.5769 18.4614 22.1004C18.6807 23.559 18.7218 25.0221 18.5801 26.4888C18.5279 27.026 18.4384 27.5601 18.3607 28.1377H18.3589ZM11.7489 18.9735C11.7079 18.6073 11.6607 18.2834 11.6371 17.9582C11.5103 16.2129 11.6228 14.4819 12.0118 12.7758C12.3647 11.2263 12.3529 9.67876 11.9695 8.1486C11.7651 7.3316 11.4507 6.53947 11.1456 5.75169C10.733 4.68599 10.1993 3.68122 9.50273 2.76909C9.06219 2.19209 8.56883 1.66483 8.00464 1.21095C7.12916 0.506486 6.12754 0.124722 5.00164 0.0165347C4.16779 -0.0636729 3.44142 0.139644 2.7772 0.624621C2.10489 1.11519 1.65006 1.78359 1.25115 2.498C0.714301 3.45925 0.488128 4.52433 0.270654 5.58257C-0.0145469 6.97035 -0.0530708 8.38176 0.0550447 9.79379C0.192985 11.6 0.547157 13.3664 1.08401 15.0962C1.76998 17.3047 2.84244 19.2925 4.4213 20.9974C4.59155 21.1808 4.73197 21.2237 4.97244 21.146C7.09747 20.4608 9.22623 19.7905 11.3544 19.114C11.4811 19.0736 11.6054 19.0245 11.7489 18.9729V18.9735ZM7.60139 22.3565C7.30873 22.3764 6.53639 22.6475 6.09585 22.8397C5.74478 22.9926 5.61554 23.2227 5.62237 23.6001C5.64661 25.0096 5.84171 26.3881 6.30649 27.7224C6.51961 28.3348 6.82283 28.9006 7.23168 29.4055C8.16247 30.5551 9.39151 30.9189 10.8032 30.6845C11.9217 30.4986 12.5691 29.7108 13.0289 28.7433C13.2644 28.2478 13.3265 27.705 13.3974 27.1684C13.4862 26.4956 13.4645 25.8192 13.434 25.1427C13.375 23.8444 13.1165 22.5934 12.5859 21.4034C12.5095 21.2312 12.4163 21.0664 12.3218 20.8786C11.7986 21.0415 11.2866 21.1447 10.792 21.3791C10.9927 21.8181 11.1313 22.2328 11.1294 22.6799C11.1263 23.4353 10.8436 24.0334 10.1496 24.243C9.80968 24.3462 9.43686 24.4208 9.08704 24.3959C8.33769 24.3437 8.07921 24.2013 7.81016 23.3769C7.70329 23.0498 7.66974 22.6991 7.60263 22.3559L7.60139 22.3565ZM19.5221 30.6671C18.8845 30.4327 18.2862 30.2125 17.6891 29.9924C17.6481 30.0403 17.6232 30.0633 17.6058 30.0913C17.558 30.1678 17.5095 30.2443 17.4672 30.3238C17.059 31.0948 16.7297 31.8982 16.5539 32.7543C16.3333 33.8262 16.1866 34.9069 16.2457 36.008C16.2749 36.5601 16.3028 37.1085 16.4681 37.6414C16.7365 38.5075 17.2355 39.2225 18.0333 39.6404C19.363 40.3367 21.1457 39.9873 22.1765 38.8967C22.6226 38.4254 22.9706 37.8876 23.2315 37.2938C23.6236 36.4004 23.8877 35.4677 24.0306 34.5052C24.1114 33.9599 24.1474 33.4072 24.1859 32.8569C24.1934 32.7462 24.158 32.5846 24.0816 32.5236C23.7218 32.2364 23.3198 32.0225 22.8575 31.9236C22.7668 32.1804 22.6978 32.4186 22.599 32.6443C22.3579 33.1958 22.0429 33.6752 21.3911 33.8045C21.2041 33.8418 21.0232 33.9114 20.8362 33.95C20.4342 34.0327 20.0278 34.0296 19.6246 33.9637C19.1704 33.889 18.8311 33.6111 18.7777 33.2505C18.7044 32.7574 18.7516 32.2669 18.8684 31.7831C18.9691 31.3665 19.2306 31.0407 19.5227 30.6677L19.5221 30.6671Z" fill="#1C474A"/>
<path d="M18.3593 28.1379C18.4376 27.5603 18.5264 27.0268 18.5786 26.489C18.7209 25.0222 18.6793 23.5599 18.4599 22.1006C18.381 21.5764 18.3127 21.0479 18.2934 20.5194C18.2406 19.0676 18.5208 17.6717 19.0714 16.3287C19.4995 15.2842 19.9729 14.2614 20.5806 13.3069C21.3349 12.1231 22.2558 11.096 23.4569 10.3486C24.4691 9.71874 25.5856 9.49304 26.7631 9.5975C27.477 9.66092 28.0686 10.0203 28.5644 10.519C29.3796 11.3391 29.8835 12.3426 30.1725 13.4512C30.5794 15.0118 30.7503 16.6011 30.6602 18.2127C30.5925 19.4201 30.4098 20.6102 30.1296 21.7884C29.7294 23.474 29.1814 25.1037 28.4128 26.6593C27.6746 28.1541 26.6637 29.4417 25.4856 30.61C25.3203 30.7736 25.1824 30.7394 25.0016 30.6704C22.9902 29.9012 20.977 29.1377 18.9645 28.3723C18.7657 28.2965 18.5674 28.2194 18.3574 28.1379H18.3593ZM27.0843 23.4268C27.1831 23.4541 27.2459 23.4772 27.3105 23.489C27.6808 23.5543 27.7113 23.5518 27.8492 23.2086C28.0244 22.7702 28.1736 22.3213 28.3295 21.8755C28.391 21.7002 28.3935 21.5236 28.3115 21.3495C28.2133 21.1399 28.0474 21.0958 27.8927 21.2662C27.8057 21.3619 27.7529 21.4937 27.7032 21.6168C27.6156 21.8357 27.5423 22.0602 27.4621 22.2821C27.3298 22.649 27.1452 22.999 27.0843 23.428V23.4268ZM26.376 25.1049C26.5257 25.2772 26.7003 25.284 26.8812 25.2523C27.0986 25.2137 27.2391 25.0303 27.2397 24.7953C27.2397 24.6262 27.1148 24.5261 26.8569 24.5068C26.7612 24.4993 26.6631 24.5199 26.563 24.5273C26.4953 24.7369 26.4338 24.9252 26.3754 25.1049H26.376Z" fill="white"/>
<path d="M11.7489 18.9738C11.6054 19.0254 11.4811 19.0745 11.3544 19.1149C9.22685 19.7908 7.09747 20.4617 4.97244 21.1469C4.73197 21.2246 4.59155 21.1823 4.4213 20.9983C2.84244 19.2934 1.76998 17.3056 1.08401 15.0971C0.547157 13.3667 0.193607 11.6003 0.0550447 9.79405C-0.0530708 8.38202 -0.0145469 6.97062 0.270654 5.58284C0.488128 4.52459 0.714301 3.45951 1.25115 2.49826C1.65006 1.78385 2.10489 1.11608 2.7772 0.624883C3.44142 0.140528 4.16716 -0.062789 5.00164 0.0167969C6.12753 0.124984 7.12916 0.506748 8.00464 1.21121C8.56883 1.6651 9.06219 2.19235 9.50273 2.76935C10.1993 3.6821 10.733 4.68687 11.1456 5.75196C11.4507 6.53973 11.7651 7.33186 11.9695 8.14886C12.3529 9.67902 12.3647 11.2266 12.0118 12.776C11.6228 14.4822 11.5109 16.2131 11.6371 17.9584C11.6607 18.2836 11.7079 18.6076 11.7489 18.9738ZM7.39137 4.61475C7.38515 4.31692 7.2671 4.06449 7.12046 3.81889C7.0403 3.68521 6.94026 3.67215 6.80481 3.71816C6.20831 3.92024 5.87029 4.74718 6.15922 5.30429C6.26361 5.50512 6.39347 5.67486 6.65071 5.6419C6.93157 5.60584 7.18819 5.50698 7.28077 5.20791C7.3398 5.01703 7.35595 4.81247 7.39075 4.61413L7.39137 4.61475ZM2.22419 5.10843C2.41619 5.41993 2.597 5.69662 2.88904 5.85082C3.20469 6.01745 3.56196 6.03051 3.91303 6.00128C4.10378 5.98512 4.18145 5.88004 4.1858 5.68294C4.19388 5.32916 4.07023 5.13641 3.74464 5.00024C3.65144 4.96107 3.55389 4.9306 3.46255 4.88708C3.01704 4.67568 2.63553 4.82242 2.22357 5.10843H2.22419Z" fill="white"/>
<path d="M7.60156 22.357C7.66929 22.7002 7.70284 23.0508 7.80909 23.3779C8.07814 24.2023 8.33662 24.3447 9.08598 24.397C9.4358 24.4212 9.80861 24.3466 10.1485 24.244C10.8425 24.0339 11.1246 23.4363 11.1284 22.6809C11.1302 22.2332 10.9917 21.8185 10.791 21.3802C11.2849 21.1458 11.7969 21.0425 12.3207 20.8796C12.4158 21.0668 12.5084 21.2322 12.5848 21.4044C13.1148 22.5945 13.3739 23.8455 13.433 25.1437C13.4634 25.8202 13.4852 26.4967 13.3963 27.1694C13.3255 27.7054 13.2633 28.2488 13.0278 28.7443C12.568 29.7112 11.9206 30.4996 10.8022 30.6855C9.39044 30.9199 8.1614 30.5568 7.23061 29.4065C6.82176 28.9016 6.51916 28.3352 6.30542 27.7234C5.84065 26.3891 5.64554 25.0106 5.62131 23.6011C5.61509 23.2243 5.74371 22.9936 6.09478 22.8407C6.53532 22.6486 7.30766 22.3775 7.60032 22.3576L7.60156 22.357Z" fill="white"/>
<path d="M19.5224 30.6674C19.2303 31.0405 18.9687 31.3663 18.8681 31.7829C18.7513 32.2666 18.704 32.7572 18.7774 33.2502C18.8308 33.6102 19.1701 33.8888 19.6243 33.9634C20.0275 34.0293 20.4339 34.0324 20.8359 33.9497C21.0229 33.9112 21.2037 33.8415 21.3908 33.8042C22.0426 33.6749 22.3582 33.1955 22.5987 32.644C22.6975 32.4183 22.7665 32.1802 22.8572 31.9234C23.3195 32.0222 23.7215 32.2361 24.0812 32.5234C24.1583 32.5849 24.1937 32.746 24.1856 32.8567C24.1471 33.4069 24.1111 33.9597 24.0303 34.505C23.8874 35.4681 23.6239 36.4001 23.2312 37.2936C22.9703 37.888 22.6217 38.4252 22.1762 38.8965C21.1447 39.9871 19.3621 40.3365 18.033 39.6401C17.2352 39.2223 16.7368 38.5073 16.4678 37.6411C16.3025 37.1083 16.2745 36.5599 16.2453 36.0078C16.1869 34.9066 16.333 33.826 16.5535 32.7541C16.7294 31.8979 17.0587 31.0946 17.4669 30.3236C17.5092 30.244 17.5576 30.1675 17.6055 30.091C17.6229 30.0631 17.6484 30.0401 17.6887 29.9922C18.2859 30.2123 18.8842 30.4324 19.5217 30.6668L19.5224 30.6674Z" fill="white"/>
<path d="M5.93652 23.1985C6.40385 22.8981 6.9157 22.7103 7.44402 22.5623C8.00632 22.4049 8.57078 22.2639 9.14448 22.1342C9.63332 22.0237 10.1996 21.7516 10.6848 21.6438C11.0511 21.5624 11.4094 21.4214 11.7806 21.3698C11.8451 21.3609 12.0094 21.7168 12.0419 21.6518" stroke="white" stroke-width="0.514706" stroke-linecap="round"/>
<path d="M7.72028 23.1403C8.2457 23.1228 8.71698 22.7815 9.19877 22.6118C9.52 22.4986 9.84523 22.4464 10.1759 22.3738C10.2652 22.3543 10.3431 22.3196 10.4332 22.3027C10.611 22.2694 10.7844 22.1707 10.96 22.1456C10.9913 22.1411 11.1188 22.1102 11.111 22.0657C11.1034 22.0228 9.21978 22.5549 9.05741 22.6004C8.69731 22.7012 8.36519 22.8386 8.01703 22.9665C7.9723 22.9829 7.47838 23.1011 7.48586 23.0674C7.5076 22.9696 7.79594 22.9254 7.85724 22.9085C8.57358 22.7115 9.30537 22.5735 10.0293 22.4081C10.3611 22.3323 11.3526 22.0911 11.0258 22.186C9.98244 22.4889 8.94305 22.7814 7.95557 23.2439C7.76078 23.3352 7.56584 23.4242 7.36909 23.5108C7.17051 23.5982 7.78414 23.384 7.99332 23.3264C8.80759 23.1024 9.6309 22.9003 10.4472 22.6855C10.9813 22.545 9.39391 23.0189 8.87568 23.2097C8.54521 23.3313 8.20948 23.4601 7.89236 23.6144C7.86618 23.6271 7.78901 23.6668 7.81685 23.6583C7.93373 23.6226 8.04822 23.5782 8.16453 23.5407C8.85371 23.3181 9.5534 23.1302 10.2471 22.9226C10.547 22.8328 10.8433 22.7327 11.1399 22.6328C11.241 22.5988 11.3652 22.5388 11.4744 22.5266C11.5925 22.5135 11.2547 22.617 11.1443 22.6609C10.5747 22.888 9.99497 23.0901 9.41826 23.2983C8.88958 23.4892 8.36239 23.709 7.81685 23.8479C7.71161 23.8748 7.60573 23.8989 7.50079 23.927C7.49127 23.9295 7.43639 23.9369 7.42704 23.9463C7.41876 23.9546 7.45046 23.946 7.46216 23.9454C7.63122 23.9365 7.80048 23.9191 7.96874 23.9015C8.94142 23.8 9.92021 23.6471 10.866 23.3949C11.1859 23.3096 11.5018 23.2116 11.8186 23.1157C11.867 23.1011 11.9965 23.0826 11.8643 23.1122C10.8265 23.3445 9.79231 23.5686 8.77471 23.8804C8.66482 23.9141 8.50949 23.9411 8.41211 24.006C8.40295 24.0121 8.41143 24.0092 8.41914 24.0095C8.48019 24.0115 8.54124 24.0216 8.60175 24.0288C9.03366 24.0803 9.46722 24.0998 9.90201 24.0771C10.2822 24.0572 10.634 23.9606 11.0003 23.869C11.0365 23.86 11.2309 23.8308 11.0864 23.8357C10.8616 23.8432 10.6384 23.8832 10.4174 23.9217C9.9692 23.9997 9.52175 24.0845 9.07585 24.1745C8.85797 24.2185 8.63817 24.2613 8.42704 24.3317C8.40212 24.34 8.34678 24.3414 8.40597 24.3414C9.01365 24.3414 9.61739 24.2577 10.2225 24.2184C10.2405 24.2173 10.4693 24.2115 10.3454 24.2158C9.89579 24.2313 9.44661 24.2562 8.99683 24.2694C8.71937 24.2775 8.44207 24.2781 8.16453 24.2781C7.97429 24.2781 8.32234 24.2663 8.33836 24.2659C8.90465 24.2493 9.4711 24.2442 10.0355 24.1877C10.3326 24.158 10.6265 24.11 10.9134 24.0262C11.0488 23.9866 11.1964 23.9427 11.3076 23.8515C11.5297 23.6695 11.2948 23.4387 11.2479 23.2386C11.2138 23.093 11.4368 22.9774 11.557 22.9507C11.5898 22.9434 11.356 22.9682 11.3305 22.9735C11.0259 23.0366 10.7259 23.1192 10.4226 23.1877" stroke="white" stroke-width="0.514706" stroke-linecap="round"/>
<path d="M18.0823 30.4109L23.2878 32.3287" stroke="white" stroke-width="0.514706" stroke-linecap="round"/>
<path d="M19.1782 32.3289C19.1855 32.4093 19.2622 32.4807 19.2622 32.5569" stroke="white" stroke-width="2.57353" stroke-linecap="round"/>
<path d="M20.2739 32.8767C20.2812 32.9572 20.3579 33.0286 20.3579 33.1048" stroke="white" stroke-width="2.57353" stroke-linecap="round"/>
<path d="M21.9177 33.4246C21.925 33.5051 22.0017 33.5764 22.0017 33.6526" stroke="white" stroke-width="2.57353" stroke-linecap="round"/>
<path d="M21.1384 31.8911C21.2297 31.8911 21.3175 31.9246 21.4058 31.9445C21.4564 31.9558 21.5404 31.9654 21.5826 31.9991C21.6178 32.0273 21.6813 32.0406 21.7026 32.0832" stroke="white" stroke-width="0.514706" stroke-linecap="round"/>
</g>
<defs>
<clipPath id="clip0_297_2803">
<rect width="30.6849" height="40" fill="white"/>
</clipPath>
</defs>
</svg>
