<svg width="27" height="42" viewBox="0 0 27 42" fill="none" xmlns="http://www.w3.org/2000/svg">
<path d="M20.8756 12.821C21.0667 13.1719 21.2874 13.5683 21.4988 13.9694C22.2346 15.3649 22.9822 16.7542 23.6954 18.1616C24.1134 18.9865 24.4422 19.8531 24.6113 20.7683C24.6888 21.1843 24.7404 21.6019 24.6598 22.0351C24.5941 22.3868 24.4226 22.6065 24.1048 22.7211C23.8144 22.8263 23.5169 22.9111 23.1999 23.0124C23.4903 23.5202 23.7878 24.0045 24.0492 24.5076C24.4351 25.2509 24.8305 25.9927 25.1569 26.7627C25.4669 27.4926 25.7229 28.2493 25.9499 29.0107C26.2153 29.9015 26.2615 30.8293 26.292 31.7539C26.3358 33.0639 25.6791 33.9642 24.6011 34.6102C23.6617 35.173 22.6581 35.3849 21.5724 35.1816C20.7919 35.0356 20.0083 34.9053 19.2341 34.7696C19.2341 35.1966 19.2239 35.6447 19.2364 36.0929C19.2685 37.2868 19.3147 38.4806 19.3468 39.6753C19.3546 39.9704 19.3319 40.2663 19.3194 40.5622C19.3116 40.7459 19.1996 40.8471 19.0321 40.8872C18.5303 41.0057 18.0285 41.0646 17.5463 40.8919C17.2018 38.8958 17.2473 36.8912 17.1071 34.8465C16.8551 34.9006 16.6382 34.9446 16.4229 34.9948C15.0718 35.3127 13.7222 35.3606 12.3804 34.9517C12.0415 34.8481 11.7127 34.7115 11.38 34.5875C10.4508 34.2421 10.0304 33.5215 9.88479 32.582C9.76737 31.8246 9.83313 31.075 9.95994 30.3309C10.2723 28.502 10.9541 26.8098 11.9147 25.2305C12.4102 24.4158 12.9691 23.645 13.6447 22.966C13.7152 22.8954 13.7801 22.82 13.8435 22.7431C13.8584 22.7243 13.8561 22.6913 13.8662 22.6458C13.6314 22.6034 13.3958 22.5681 13.164 22.5171C12.6936 22.4142 12.3656 22.1105 12.5135 21.5171C12.6403 21.0085 12.7859 20.4967 12.9965 20.0187C13.9249 17.9104 14.8769 15.8139 15.8264 13.7151C15.99 13.3532 16.1826 13.0047 16.3705 12.6335C16.1834 12.4035 16.0041 12.1688 15.81 11.9482C15.3466 11.4223 15.1595 10.7858 15.089 10.1123C15.0052 9.31484 15.1062 8.52443 15.2276 7.73559C15.4358 6.38633 15.9352 5.13596 16.4918 3.90286C16.7721 3.28121 17.0288 2.64936 17.3185 2.03241C17.4445 1.76397 17.6277 1.52301 17.7819 1.26712C17.8954 1.07796 18.059 0.99476 18.279 1.00025C18.856 1.01517 19.4157 1.12584 19.9096 1.42568C20.1038 1.54342 20.2838 1.74906 20.3754 1.95706C20.7371 2.77416 21.1261 3.58811 21.3813 4.44053C21.6162 5.22466 21.725 6.05195 21.8291 6.86748C21.9505 7.82586 22.035 8.79052 22.082 9.75517C22.1156 10.4483 21.9098 11.1084 21.57 11.7135C21.3641 12.0809 21.1222 12.4286 20.8741 12.8203L20.8756 12.821ZM20.9492 19.543C21.0134 19.3311 21.0612 19.2283 21.0753 19.1208C21.1371 18.6584 21.0236 18.2212 20.849 17.8013C20.8138 17.7165 20.6956 17.6114 20.615 17.6106C20.449 17.6106 20.3879 17.7527 20.3895 17.9096C20.3942 18.3515 20.4608 18.7832 20.651 19.1851C20.7011 19.2903 20.8028 19.3704 20.9492 19.5423V19.543ZM17.1181 8.85409C17.3686 8.85488 17.4062 8.69475 17.4336 8.56681C17.4931 8.29131 17.5306 8.00953 17.5604 7.72853C17.576 7.57469 17.569 7.41535 17.5471 7.26229C17.5369 7.19165 17.4657 7.13043 17.4218 7.06528C17.349 7.11865 17.2715 7.16653 17.2058 7.22697C17.1776 7.25287 17.1635 7.30232 17.1588 7.34314C17.1157 7.73638 17.068 8.12962 17.0422 8.52443C17.0351 8.63589 17.093 8.75206 17.1189 8.85331L17.1181 8.85409ZM22.536 32.4776C22.7826 32.1268 22.6558 31.8097 22.5157 31.498C22.4538 31.3599 22.3254 31.3418 22.19 31.3764C22.0522 31.4117 21.9802 31.498 21.9685 31.6472C21.9411 31.987 22.143 32.3042 22.536 32.4776ZM13.3942 27.5036C13.7699 27.32 14.0345 26.7313 13.9109 26.3631C13.8952 26.3168 13.8396 26.2493 13.8075 26.2517C13.7324 26.258 13.622 26.2799 13.5938 26.3317C13.4881 26.5295 13.3864 26.7352 13.3277 26.9495C13.2783 27.13 13.2361 27.3357 13.3942 27.5028V27.5036ZM19.2286 27.6402C19.4744 27.2878 19.4157 26.9612 19.3131 26.6355C19.2669 26.4887 19.1425 26.4652 19.0055 26.4762C18.8419 26.4895 18.78 26.6057 18.7879 26.7368C18.8074 27.0766 18.8787 27.4 19.2286 27.6402ZM18.6532 6.78585C18.3612 7.07862 18.3416 7.39102 18.3941 7.71989C18.4168 7.86118 18.5053 7.9695 18.6516 7.93653C18.7432 7.91612 18.8716 7.82978 18.8904 7.74972C18.9718 7.41456 18.953 7.08726 18.6532 6.78585ZM20.6486 27.2823C20.8522 26.9691 20.8068 26.7007 20.6627 26.4377C20.5696 26.2682 20.4083 26.265 20.2549 26.3231C20.0975 26.382 20.1171 26.5288 20.1562 26.6504C20.2376 26.9071 20.341 27.1528 20.6486 27.2823ZM19.9637 19.3837C20.1954 19.0949 20.1977 18.6035 19.9864 18.401C19.8736 18.2935 19.7241 18.3413 19.6584 18.507C19.5433 18.7982 19.6435 19.1027 19.9629 19.3837H19.9637ZM14.7876 27.6323C15.1015 27.4039 15.2166 27.1308 15.1806 26.7988C15.172 26.7171 15.0867 26.5798 15.0358 26.5798C14.9426 26.5798 14.8056 26.6386 14.7641 26.7148C14.6091 26.9974 14.5418 27.2964 14.7868 27.6323H14.7876ZM23.8887 32.1362C24.0054 31.8026 24.0062 31.4878 23.8629 31.3057C23.8073 31.2351 23.6711 31.1754 23.5897 31.1927C23.5099 31.21 23.405 31.3254 23.3932 31.4086C23.3595 31.6629 23.5999 32.002 23.8887 32.1362Z" fill="#3F7E82"/>
<path d="M4.20964 22.9098C3.61895 23.5631 3.12334 24.2853 2.6835 25.0352C1.7364 26.6501 1.06051 28.3869 0.750685 30.2681L0.750664 30.2683C0.625467 31.0301 0.555593 31.8247 0.677325 32.6391L4.20964 22.9098ZM4.20964 22.9098C4.18474 22.9045 4.15994 22.899 4.13532 22.8934C3.85422 22.8296 3.56291 22.6922 3.37126 22.4274C3.17169 22.1516 3.12783 21.8045 3.21862 21.4269C3.34227 20.9126 3.48858 20.3759 3.70439 19.8678C3.70439 19.8678 3.7044 19.8678 3.70441 19.8678L4.20964 22.9098ZM10.4583 35.2311C10.4563 35.5138 10.4549 35.7963 10.4626 36.0825L10.4627 36.0829C10.4781 36.6783 10.4969 37.2738 10.5158 37.8706L10.5158 37.8716C10.5347 38.4684 10.5536 39.0667 10.5691 39.6653L10.5691 39.6654C10.5752 39.9025 10.5632 40.145 10.5521 40.3701C10.5486 40.4414 10.5452 40.5109 10.5425 40.578L10.5425 40.5781C10.5355 40.7467 10.4794 40.9079 10.3625 41.0373C10.2494 41.1625 10.1059 41.2288 9.97258 41.2619L9.97157 41.2621C9.46714 41.3857 8.88901 41.4678 8.3126 41.2538L8.10291 41.1759L8.0662 40.9552C7.83644 39.5745 7.78257 38.172 7.72927 36.7843C7.71044 36.2942 7.69168 35.8059 7.66527 35.321C7.59409 35.337 7.52468 35.3531 7.45499 35.3699C7.45484 35.37 7.4547 35.37 7.45455 35.37L7.36376 34.9948L10.4583 35.2311ZM10.4583 35.2311C10.537 35.2452 10.6156 35.2593 10.6943 35.2733C11.2151 35.3665 11.7353 35.4596 12.2558 35.5606M10.4583 35.2311L12.2558 35.5606M12.2558 35.5606C12.2557 35.5606 12.2557 35.5606 12.2557 35.5606L12.3292 35.1822L12.2558 35.5606ZM14.4653 23.2349C14.4729 23.2483 14.4805 23.2618 14.4881 23.2752C14.6846 23.6239 14.8837 23.9772 15.0628 24.3347L15.0629 24.3348C15.1032 24.4154 15.1438 24.4962 15.1845 24.5772C15.5163 25.2379 15.8565 25.9155 16.143 26.6164C16.1431 26.6164 16.1431 26.6165 16.1431 26.6166L15.7858 26.7627C16.0847 27.4926 16.3316 28.2493 16.5505 29.0107L14.4653 23.2349ZM14.4653 23.2349C14.6142 23.1865 14.763 23.1366 14.907 23.0825M14.4653 23.2349L10.7259 1.42568M14.907 23.0825C14.9068 23.0826 14.9066 23.0827 14.9065 23.0827L14.7713 22.7211L14.907 23.0825ZM14.907 23.0825C15.1176 23.0037 15.298 22.8808 15.4354 22.7032C15.5707 22.5283 15.6469 22.3226 15.6864 22.1036L15.6864 22.1033C15.7767 21.6002 15.7163 21.127 15.6396 20.7C15.4688 19.7414 15.1379 18.8405 14.7233 17.9921C14.2094 16.9403 13.6764 15.8975 13.1452 14.8583C12.9638 14.5033 12.7826 14.1488 12.6024 13.7944C12.4553 13.5049 12.3027 13.2162 12.161 12.9484C12.1408 12.91 12.1207 12.8721 12.1009 12.8347C12.1331 12.7832 12.1654 12.7317 12.1978 12.6802C12.3607 12.4208 12.5243 12.1605 12.6665 11.8973C13.0185 11.2471 13.2428 10.5173 13.2063 9.73711L13.2063 9.73707C13.1605 8.7628 13.0782 7.78857 12.9601 6.8207L12.96 6.82031C12.8601 6.00893 12.7523 5.15163 12.516 4.33346C12.3018 3.59175 11.9926 2.87673 11.696 2.19073C11.6401 2.0614 11.5846 1.93311 11.5303 1.80586C11.5302 1.80575 11.5302 1.80564 11.5301 1.80553L11.1751 1.95706M11.1751 1.95706C11.0868 1.74906 10.9131 1.54342 10.7259 1.42568M11.1751 1.95706C11.2309 2.08788 11.2874 2.21862 11.344 2.34945C11.6407 3.03578 11.9384 3.72459 12.1451 4.44053C12.3715 5.22466 12.4765 6.05195 12.5769 6.86748L11.1751 1.95706ZM10.7259 1.42568L10.9316 1.09899C10.9315 1.09896 10.9315 1.09893 10.9314 1.0989M10.7259 1.42568L10.9314 1.0989M10.9314 1.0989C10.3776 0.750321 9.76299 0.630423 9.16389 0.614364L9.16355 0.614355C9.00367 0.610214 8.84063 0.63932 8.68948 0.722371C8.53798 0.805617 8.42396 0.92904 8.34045 1.07316C8.29334 1.15422 8.24577 1.22961 8.19424 1.31127C8.16814 1.35263 8.14102 1.3956 8.11244 1.44173C8.03194 1.57163 7.94689 1.71587 7.87566 1.8732L7.87566 1.87321C7.71168 2.23541 7.55332 2.61515 7.39767 2.98841C7.28952 3.24774 7.18268 3.50394 7.07616 3.74896C6.53653 4.9888 6.03781 6.27733 5.82925 7.67877L5.82923 7.67895C5.71207 8.46884 5.60735 9.30131 5.69339 10.1511C5.76549 10.8657 5.96142 11.5896 6.47839 12.198L10.9314 1.0989ZM11.2845 17.9673L11.2858 17.9694L11.2865 17.9705C11.2866 17.9705 11.2864 17.9703 11.2861 17.9699L11.2848 17.9684L11.2818 17.9655C11.2806 17.9645 11.2805 17.9646 11.2816 17.9653C11.2789 17.9585 11.2762 17.9518 11.2735 17.945C11.2778 17.9557 11.2816 17.9626 11.2835 17.9658L11.2845 17.9673ZM11.2845 17.9673C11.2866 17.9687 11.2898 17.9705 11.294 17.9727C11.3002 17.9759 11.3117 17.9811 11.328 17.9859C11.3441 17.9907 11.3695 17.9963 11.4022 17.9966L11.4031 17.9076M11.2845 17.9673L11.4031 17.9076M11.4031 17.9076L11.4061 17.9075V17.9966C11.425 17.9966 11.4578 17.9919 11.4938 17.9716C11.5293 17.9516 11.5518 17.9256 11.5639 17.9061L11.4031 17.9076ZM11.4031 17.9076L11.4031 17.9074L11.3661 17.9078H11.366L11.1887 17.9096L11.3657 17.9079L11.3658 17.9079L11.4031 17.9076ZM11.8527 19.0984C11.906 18.6443 11.7974 18.2145 11.6318 17.8013L11.8527 19.0984ZM11.8527 19.0984C11.8478 19.0929 11.8433 19.0879 11.8392 19.0833C11.8003 19.0392 11.7923 19.0253 11.7915 19.0239C11.6381 18.6872 11.5789 18.3139 11.5747 17.9059C11.5745 17.8905 11.576 17.8819 11.5765 17.8798L11.8527 19.0984ZM8.07647 7.6901C8.04913 7.95772 8.01561 8.21745 7.96458 8.46767C7.9641 8.47468 7.96363 8.48169 7.96317 8.4887C7.96315 8.48891 7.96314 8.48913 7.96313 8.48934C7.96238 8.50067 7.96164 8.51199 7.96093 8.52332C7.96759 8.51481 7.97632 8.50554 7.98726 8.49673C7.98806 8.49608 7.98887 8.49545 7.98967 8.49482C7.98987 8.49466 7.99008 8.4945 7.99028 8.49435C8.00106 8.48606 8.012 8.4797 8.02217 8.47515C8.02733 8.47284 8.03177 8.47122 8.03533 8.4701M8.07647 7.6901C8.07644 7.69034 8.07642 7.69058 8.07639 7.69083L8.42073 7.72462M8.07647 7.6901C8.07649 7.68984 8.07652 7.68958 8.07654 7.68932L8.42075 7.72446M8.07647 7.6901C8.08635 7.58872 8.08419 7.47969 8.07203 7.36899M8.42073 7.72462C8.3921 7.99277 8.3654 8.2553 8.34804 8.51891C8.34613 8.5285 8.3442 8.53809 8.34224 8.54768L8.20673 8.53942L8.20516 8.53932L8.03514 8.52896M8.42073 7.72462L8.46058 7.72853L8.42075 7.72446M8.42073 7.72462C8.42074 7.72457 8.42074 7.72451 8.42075 7.72446M8.03514 8.52896L8.03522 8.50423L8.03522 8.5037L8.03533 8.4701M8.03514 8.52896L8.03514 8.52912M8.03514 8.52896L7.96086 8.52443L8.03514 8.52912M8.03533 8.4701C8.04144 8.46817 8.04494 8.4677 8.04502 8.46769C8.04509 8.46768 8.0421 8.46809 8.03534 8.46807L8.03533 8.4701ZM8.03514 8.52912L8.20881 8.54008L8.21035 8.54017L8.34207 8.54848C8.34082 8.5546 8.33956 8.56071 8.33829 8.56681L8.03409 8.85032L8.03514 8.52912ZM8.42075 7.72446C8.42537 7.68115 8.43005 7.63768 8.43474 7.59405C8.43974 7.54753 8.44477 7.50081 8.44978 7.45385M8.07203 7.36899L8.07704 7.37536L8.08829 7.39008C8.09086 7.39358 8.09177 7.39502 8.09156 7.3947C8.09129 7.39429 8.08925 7.39109 8.08652 7.38572C8.0832 7.37917 8.07757 7.36694 8.07263 7.34976C8.07287 7.34755 8.0731 7.34534 8.07333 7.34313M8.07203 7.36899C8.07179 7.36679 8.07154 7.36459 8.07129 7.36239C8.07112 7.36406 8.07094 7.36572 8.07077 7.36738L8.07203 7.36899ZM8.07333 7.34313L8.2478 7.3625L8.45701 7.38571C8.45675 7.38799 8.45591 7.39557 8.45121 7.40878C8.44867 7.41592 8.44371 7.42835 8.43473 7.44385C8.42591 7.45906 8.41035 7.4822 8.38497 7.5064C8.40651 7.48586 8.42437 7.47221 8.44978 7.45385M8.07333 7.34313C8.07439 7.33364 8.07593 7.32368 8.07802 7.31365L8.18684 7.29853L8.44775 7.26229M8.07333 7.34313L8.24681 7.36145L8.45723 7.38367C8.45475 7.40712 8.45227 7.43052 8.44978 7.45385M8.44978 7.45385C8.45468 7.45031 8.45988 7.44659 8.46543 7.44261C8.46199 7.38201 8.45595 7.32168 8.44775 7.26229M8.44775 7.26229C8.44096 7.21341 8.40597 7.16903 8.37106 7.12475C8.35552 7.10504 8.33999 7.08534 8.32697 7.06528C8.30611 7.08114 8.28485 7.09651 8.26361 7.11187C8.21336 7.14821 8.1632 7.18449 8.11863 7.22697C8.09784 7.24678 8.085 7.28037 8.07809 7.31334L8.18666 7.29834L8.44775 7.26229ZM13.0289 31.7472C13.0312 31.7461 13.034 31.7446 13.0373 31.7427C13.0491 31.7355 13.0628 31.7243 13.075 31.7089C13.0854 31.6958 13.0911 31.6844 13.0941 31.6769C13.0942 31.6767 13.0943 31.6765 13.0943 31.6763C13.0964 31.671 13.0971 31.6679 13.0971 31.6677C13.0972 31.6675 13.0966 31.6701 13.0962 31.6764L13.0961 31.6771C13.0847 31.8243 13.157 31.9959 13.3913 32.1133C13.3885 32.151 13.3826 32.189 13.3731 32.2274L13.2585 32.4776L12.9503 32.2687C12.947 32.2654 12.9437 32.2621 12.9404 32.2588C13.0033 32.1652 13.0132 32.0916 13.0048 32.0151C12.9944 31.9204 12.9555 31.8154 12.8888 31.661C12.8887 31.6609 12.8887 31.6608 12.8886 31.6606C12.8873 31.6577 12.886 31.6546 12.8847 31.6516C12.8857 31.6539 12.8873 31.657 12.8894 31.6607C12.8894 31.6608 12.8895 31.6609 12.8896 31.661C12.8951 31.6705 12.9045 31.6839 12.9195 31.698C12.9417 31.7187 12.9673 31.7326 12.9911 31.7402C13.0043 31.7444 13.0151 31.7462 13.0228 31.7469M13.0289 31.7472C13.0273 31.7472 13.0254 31.7471 13.0234 31.7469M13.0289 31.7472C13.0267 31.7483 13.025 31.749 13.024 31.7494L13.0234 31.7469M13.0289 31.7472C13.0313 31.7473 13.0332 31.7472 13.0345 31.7472M13.0234 31.7469L13.0029 31.6699L13.0027 31.6693L12.9863 31.6076L12.9862 31.6071L12.9249 31.3764L12.9859 31.6072L12.986 31.6077L13.0023 31.6693L13.0025 31.6698L13.0228 31.7469M13.0234 31.7469C13.0232 31.7469 13.023 31.7469 13.0228 31.7469M13.0228 31.7469L13.0235 31.7496M13.0235 31.7496L13.0345 31.7472M13.0235 31.7496L13.0236 31.7496C13.0237 31.7496 13.0238 31.7495 13.0238 31.7495L13.0235 31.7496ZM13.0345 31.7472C13.0357 31.7471 13.0364 31.747 13.0365 31.7469L13.0345 31.7472ZM6.16579 26.7988C6.15748 26.7171 6.0752 26.5798 6.02613 26.5798C5.93631 26.5798 5.80421 26.6386 5.7642 26.7148C5.6728 26.8876 5.61302 27.0665 5.6344 27.2563C5.69335 27.1995 5.72847 27.1465 5.74986 27.0982C5.77705 27.0367 5.79125 26.9622 5.78404 26.8635C5.78388 26.8632 5.78373 26.863 5.78357 26.8627C5.78213 26.8604 5.78216 26.8608 5.78403 26.8633M6.16579 26.7988L5.78403 26.8633M6.16579 26.7988C6.18679 26.9996 6.15448 27.1789 6.05867 27.3398M6.16579 26.7988L6.05867 27.3398M5.78403 26.8633C5.78344 26.8553 5.78272 26.8472 5.78185 26.8389C5.78181 26.8386 5.78177 26.8382 5.78174 26.8378L5.78403 26.8633ZM5.78609 27.6323C5.78319 27.6282 5.78035 27.6241 5.77754 27.62L5.78609 27.6313V27.6323ZM5.78609 27.6323H5.78684M5.78609 27.6323L5.78658 27.632L5.78684 27.6323M5.78684 27.6323C5.78993 27.63 5.79299 27.6277 5.79604 27.6253L5.78684 27.6318V27.6323ZM6.05867 27.3398C6.02229 27.2695 6.01463 27.2137 6.01628 27.1672C6.01878 27.0966 6.04448 27.0105 6.10543 26.8953C6.08557 26.9327 6.06372 26.9521 6.05693 26.9578C6.05318 26.9609 6.05033 26.9629 6.04854 26.9641L6.05867 27.3398ZM9.26451 7.71989C9.2864 7.86118 9.3717 7.9695 9.51286 7.93653M9.26451 7.71989L9.45541 7.69054L9.456 7.69045L9.47098 7.68814L9.47655 7.68729L9.64547 7.66131C9.64596 7.66251 9.64635 7.66353 9.64663 7.66437M9.26451 7.71989C9.23304 7.51525 9.22846 7.31698 9.29733 7.12586C9.34974 7.19734 9.3753 7.26414 9.38743 7.32762C9.40473 7.41807 9.39909 7.52571 9.36723 7.66168C9.3797 7.60906 9.4026 7.57861 9.40894 7.57058C9.41135 7.56753 9.41343 7.56515 9.41508 7.56336M9.26451 7.71989L9.45536 7.69032L9.45595 7.69023L9.47035 7.688L9.47592 7.68714L9.6453 7.66089M9.51286 7.93653L9.6453 7.66089M9.51286 7.93653C9.60118 7.91612 9.72498 7.82978 9.7431 7.74972L9.51286 7.93653ZM9.64663 7.66437C9.64701 7.66621 9.6473 7.66705 9.64735 7.66701C9.64739 7.66697 9.6472 7.66605 9.64663 7.66437ZM9.64663 7.66437C9.64644 7.66344 9.64622 7.66225 9.64599 7.66079L9.6453 7.66089M9.6453 7.66089C9.64177 7.65247 9.63295 7.63615 9.6133 7.61701C9.592 7.59627 9.56034 7.57532 9.51963 7.56416C9.47953 7.55317 9.44601 7.55587 9.42595 7.56041C9.42566 7.56048 9.42536 7.56055 9.42507 7.56062C9.42092 7.5616 9.4176 7.56256 9.41508 7.56336M9.41508 7.56336C9.4179 7.56033 9.4195 7.55902 9.41943 7.5591C9.4194 7.55913 9.4191 7.55939 9.4185 7.55986C9.41618 7.56165 9.41282 7.56375 9.41023 7.56506C9.40957 7.56539 9.40919 7.56555 9.40912 7.56558C9.40892 7.56565 9.41087 7.56472 9.41508 7.56336ZM6.80204 12.7946C6.6759 13.0461 6.54696 13.3033 6.43473 13.5607L6.47853 12.1982C6.6021 12.3438 6.71571 12.4914 6.83592 12.6477C6.84391 12.6581 6.85192 12.6685 6.85997 12.6789C6.84077 12.7173 6.82144 12.7559 6.80204 12.7946ZM11.2117 18.3154C11.2335 18.517 11.2723 18.7151 11.3338 18.9078C11.3345 18.8939 11.3349 18.88 11.3352 18.8663C11.338 18.693 11.3066 18.491 11.2117 18.3154ZM5.78885 26.8733C5.78889 26.8735 5.78869 26.873 5.78834 26.872C5.78839 26.8721 5.78843 26.8722 5.78847 26.8723C5.78871 26.8729 5.78883 26.8732 5.78885 26.8733Z" fill="#3F7E82" stroke="#033336" stroke-width="0.772059"/>
</svg>
