<svg width="38" height="34" viewBox="0 0 38 34" fill="none" xmlns="http://www.w3.org/2000/svg">
<path d="M5.80579 33.4209V17.0736L2.47245 19.6153L0.805786 17.3931L5.80579 13.5875V8.69865H8.58354V11.4625L19.1391 3.42086L37.4725 17.4209L35.8058 19.6014L32.4725 17.0736V33.4209H5.80579ZM8.58354 30.6431H29.6947V14.9486L19.1391 6.90694L8.58354 14.9486V30.6431ZM5.80579 6.75419C5.80579 5.43939 6.26874 4.32365 7.19466 3.40698C8.12061 2.49032 9.23172 2.03198 10.528 2.03198C11.0789 2.03198 11.5407 1.83984 11.9134 1.45557C12.2861 1.07132 12.4725 0.615302 12.4725 0.0875244H15.2502C15.2502 1.38383 14.7911 2.49494 13.8729 3.42086C12.9547 4.34678 11.8397 4.80973 10.528 4.80973C10.0002 4.80973 9.5442 4.99608 9.15995 5.36877C8.77568 5.74147 8.58354 6.20328 8.58354 6.75419H5.80579Z" fill="black"/>
<path d="M8.58354 30.6431H14.4169V20.3653H23.8613V30.6431H29.6947V14.8097L19.1391 6.89305L8.58354 14.8097V30.6431ZM5.80579 33.4208V13.4208L19.1391 3.42084L32.4725 13.4208V33.4208H21.0836V23.143H17.1947V33.4208H5.80579Z" fill="black"/>
</svg>
