<svg width="40" height="40" viewBox="0 0 40 40" fill="none" xmlns="http://www.w3.org/2000/svg">
<mask id="mask0_5_18" style="mask-type:alpha" maskUnits="userSpaceOnUse" x="0" y="0" width="40" height="40">
<rect width="40" height="40" fill="#D9D9D9"/>
</mask>
<g mask="url(#mask0_5_18)">
<path d="M13.125 30C10.9861 30 9.36109 29.2084 8.24998 27.625C7.13887 26.0417 6.61109 24.2639 6.66665 22.2917L5.91665 21.1667C5.61109 20.6945 5.10415 19.625 4.39581 17.9584C3.68748 16.2917 3.33331 14.1945 3.33331 11.6667C3.33331 8.80558 4.04165 6.42363 5.45831 4.52085C6.87498 2.61808 8.66665 1.66669 10.8333 1.66669C13.1944 1.66669 15.0347 2.7153 16.3541 4.81252C17.6736 6.90974 18.3333 9.19446 18.3333 11.6667C18.3333 13.2778 18.1111 14.7639 17.6666 16.125C17.2222 17.4861 16.8333 18.5834 16.5 19.4167L16.8333 19.9584C17.0555 20.3472 17.3611 20.9653 17.75 21.8125C18.1389 22.6597 18.3333 23.5417 18.3333 24.4584C18.3333 26.0417 17.8403 27.3611 16.8541 28.4167C15.868 29.4722 14.625 30 13.125 30ZM8.33331 19.75L13.8611 18.6111C14.2407 17.6111 14.6181 16.4954 14.9931 15.2639C15.3681 14.0324 15.5556 12.8334 15.5556 11.6667C15.5556 9.87038 15.1366 8.2176 14.2986 6.70835C13.4606 5.19908 12.3055 4.44444 10.8333 4.44444C9.45367 4.44444 8.32173 5.14815 7.43748 6.55556C6.5532 7.96298 6.11106 9.66669 6.11106 11.6667C6.11106 13.6945 6.40505 15.4283 6.99302 16.8681C7.58099 18.3079 8.02776 19.2685 8.33331 19.75ZM13.125 27.2223C13.8194 27.2223 14.3981 26.9676 14.8611 26.4584C15.3241 25.9491 15.5556 25.2824 15.5556 24.4584C15.5556 23.9306 15.4352 23.3843 15.1944 22.8195C14.9537 22.2546 14.6944 21.75 14.4166 21.3056L9.4444 22.3334C9.4259 23.5 9.70599 24.6065 10.2847 25.6528C10.8634 26.6991 11.8101 27.2223 13.125 27.2223ZM26.875 38.3334C25.375 38.3334 24.1319 37.8056 23.1458 36.75C22.1597 35.6945 21.6666 34.375 21.6666 32.7917C21.6666 31.875 21.8611 30.9931 22.25 30.1459C22.6389 29.2986 22.9444 28.6806 23.1666 28.2917L23.5 27.75C23.1666 26.9167 22.7778 25.8195 22.3333 24.4584C21.8889 23.0972 21.6666 21.6111 21.6666 20C21.6666 17.5278 22.3264 15.2431 23.6458 13.1459C24.9653 11.0486 26.8055 10 29.1666 10C31.3333 10 33.125 10.9514 34.5417 12.8542C35.9583 14.757 36.6666 17.1389 36.6666 20C36.6666 22.5278 36.3125 24.6181 35.6041 26.2709C34.8958 27.9236 34.3889 28.9861 34.0833 29.4584L33.3333 30.625C33.3611 32.5972 32.8264 34.375 31.7291 35.9584C30.6319 37.5417 29.0139 38.3334 26.875 38.3334ZM31.6666 28.0556C31.9907 27.5556 32.4421 26.5926 33.0208 25.1667C33.5995 23.7408 33.8889 22.0185 33.8889 20C33.8889 18 33.4468 16.2963 32.5625 14.8889C31.6782 13.4815 30.5463 12.7778 29.1666 12.7778C27.6944 12.7778 26.5393 13.5324 25.7014 15.0417C24.8634 16.5509 24.4444 18.2037 24.4444 20C24.4444 21.1852 24.6365 22.3866 25.0208 23.6042C25.4051 24.8218 25.787 25.9352 26.1666 26.9445L31.6666 28.0556ZM26.875 35.5556C28.1898 35.5556 29.132 35.0278 29.7014 33.9722C30.2708 32.9167 30.5556 31.8056 30.5556 30.6389L25.5833 29.6389C25.324 30.0833 25.0694 30.588 24.8194 31.1528C24.5694 31.7176 24.4444 32.2639 24.4444 32.7917C24.4444 33.5695 24.6736 34.2246 25.1319 34.757C25.5903 35.2894 26.1713 35.5556 26.875 35.5556Z" fill="#A0A0A0"/>
</g>
</svg>
