<svg width="40" height="40" viewBox="0 0 40 40" fill="none" xmlns="http://www.w3.org/2000/svg">
<mask id="mask0_5_21" style="mask-type:alpha" maskUnits="userSpaceOnUse" x="0" y="0" width="40" height="40">
<rect width="40" height="40" fill="#D9D9D9"/>
</mask>
<g mask="url(#mask0_5_21)">
<path d="M12.3056 36.6666V30.3056H0L7.38892 19.3611H3.72225L15 3.33331L20 10.4444L25 3.33331L36.2778 19.3611H32.6389L40 30.3056H27.7222V36.6666H22.3056V30.3056H17.7222V36.6666H12.3056ZM28.1806 27.5278H34.7778L27.375 16.5833H30.7778L25 8.36106L21.7917 12.9583L26.2778 19.3611H22.6389L28.1806 27.5278ZM5.24996 27.5278H24.7778L17.375 16.5833H20.7778L15 8.36106L9.22221 16.5833H12.6528L5.24996 27.5278ZM5.24996 27.5278H12.6528H9.22221H20.7778H17.375H24.7778H5.24996ZM28.1806 27.5278H22.6389H26.2778H21.7917H30.7778H27.375H34.7778H28.1806Z" fill="#A0A0A0"/>
</g>
</svg>
