<svg width="29" height="29" viewBox="0 0 29 29" fill="none" xmlns="http://www.w3.org/2000/svg">
	<path
		d="M5.06057 22.934C6.4064 21.9657 7.83445 21.1999 9.34471 20.6366C10.855 20.0733 12.4901 19.7917 14.25 19.7917C16.0099 19.7917 17.645 20.0733 19.1553 20.6366C20.6655 21.1999 22.0936 21.9657 23.4394 22.934C24.4848 21.852 25.3257 20.5742 25.9621 19.1005C26.5985 17.6267 26.9167 16.0099 26.9167 14.25C26.9167 10.7403 25.683 7.75174 23.2156 5.28437C20.7483 2.81701 17.7597 1.58333 14.25 1.58333C10.7403 1.58333 7.75174 2.81701 5.28437 5.28437C2.81701 7.75174 1.58333 10.7403 1.58333 14.25C1.58333 16.0099 1.90152 17.6267 2.53789 19.1005C3.17428 20.5742 4.01517 21.852 5.06057 22.934ZM14.2509 15.0417C12.9166 15.0417 11.7913 14.5837 10.8748 13.6678C9.95826 12.7519 9.5 11.6269 9.5 10.2926C9.5 8.9583 9.95794 7.83292 10.8738 6.91644C11.7897 5.99992 12.9148 5.54167 14.2491 5.54167C15.5834 5.54167 16.7087 5.99962 17.6252 6.91553C18.5417 7.8314 19 8.95648 19 10.2908C19 11.625 18.542 12.7504 17.6261 13.6669C16.7103 14.5834 15.5852 15.0417 14.2509 15.0417ZM14.25 28.5C12.2627 28.5 10.4023 28.1301 8.66875 27.3902C6.93521 26.6502 5.42698 25.6388 4.14406 24.3559C2.86116 23.073 1.84976 21.5648 1.10984 19.8312C0.369946 18.0977 0 16.2373 0 14.25C0 12.2627 0.369946 10.4023 1.10984 8.66875C1.84976 6.93521 2.86116 5.42698 4.14406 4.14406C5.42698 2.86116 6.93521 1.84976 8.66875 1.10984C10.4023 0.369947 12.2627 0 14.25 0C16.2373 0 18.0977 0.369947 19.8312 1.10984C21.5648 1.84976 23.073 2.86116 24.3559 4.14406C25.6388 5.42698 26.6502 6.93521 27.3902 8.66875C28.1301 10.4023 28.5 12.2627 28.5 14.25C28.5 16.2373 28.1301 18.0977 27.3902 19.8312C26.6502 21.5648 25.6388 23.073 24.3559 24.3559C23.073 25.6388 21.5648 26.6502 19.8312 27.3902C18.0977 28.1301 16.2373 28.5 14.25 28.5ZM14.25 26.9167C15.7095 26.9167 17.1457 26.6614 18.5585 26.1509C19.9713 25.6404 21.1923 24.9416 22.2215 24.0545C21.1923 23.2283 20.0018 22.5752 18.6498 22.0951C17.2979 21.615 15.8313 21.375 14.25 21.375C12.6687 21.375 11.197 21.61 9.83495 22.0799C8.47287 22.5498 7.28738 23.208 6.27851 24.0545C7.30768 24.9416 8.52868 25.6404 9.94151 26.1509C11.3543 26.6614 12.7905 26.9167 14.25 26.9167ZM14.25 13.4583C15.1391 13.4583 15.8891 13.1528 16.5002 12.5418C17.1112 11.9308 17.4167 11.1808 17.4167 10.2917C17.4167 9.40257 17.1112 8.65252 16.5002 8.04151C15.8891 7.4305 15.1391 7.125 14.25 7.125C13.3609 7.125 12.6109 7.4305 11.9998 8.04151C11.3888 8.65252 11.0833 9.40257 11.0833 10.2917C11.0833 11.1808 11.3888 11.9308 11.9998 12.5418C12.6109 13.1528 13.3609 13.4583 14.25 13.4583Z"
		fill="white" />
</svg>
	