<svg width="256" height="256" viewBox="0 0 256 256" fill="none"
	xmlns="http://www.w3.org/2000/svg">
	<path d="M104.429 149.223C96.2337 150.179 90.3802 151.144 84.4976 151.479C69.1105 152.282 53.7102 153.714 38.3534 153.094C21.8477 152.449 17.5385 146.87 13.9966 131.253C10.8863 117.364 19.7282 112.023 29.5045 106.785C49.9189 95.8262 72.0715 95.2088 97.397 97.5493C91.3139 83.3032 85.8255 71.1223 80.9383 58.7029C77.9097 50.9727 74.5877 43.0268 73.4831 34.9187C71.4625 19.8376 75.5486 13.8926 87.7548 10.5081C102.831 6.30514 111.7 9.67756 117.57 23.961C128.298 49.9931 139.869 68.5318 151.13 97.5494C156.195 91.6252 164.517 84.1332 166.586 82.7778C191.538 63.8489 197.601 60.475 221.424 59.4324C230.033 59.0292 238.84 59.3005 243.501 68.3222C248.533 77.98 245.104 87.0388 237.906 93.1688C223.987 104.978 208.822 115.379 193.851 126.622C202.493 136.65 211.886 147.406 221.063 158.325C224.51 162.419 227.825 166.679 230.538 171.261C236.742 181.823 245.379 194.071 235.318 204.706C225.735 214.849 210.443 219.173 196.781 212.975C185.269 207.745 175.37 198.738 165.411 190.567C160.432 186.481 157.022 180.628 151.13 173.424C147.989 188.981 146.779 201.815 142.61 213.665C136.988 229.714 129.131 244.795 108.04 245.56C91.6359 246.133 85.8433 242.239 87.4597 226.314C89.1303 209.845 93.8178 193.65 97.3999 177.39C99.2867 168.759 101.64 160.222 104.342 149.304L104.429 149.223Z" fill="#0A2D2F"/>
</svg>
