<svg width="10" height="16" viewBox="0 0 10 16" fill="none"
	xmlns="http://www.w3.org/2000/svg">
	<path d="M1.20833 16L3.14583 6.08333L1.5 6.79167V9H0V5.79167L3.85417 4.16667C3.99306 4.11111 4.12847 4.06944 4.26042 4.04167C4.39236 4.01389 4.52083 4 4.64583 4C5.00694 4 5.32639 4.07986 5.60417 4.23958C5.88194 4.39931 6.11806 4.61806 6.3125 4.89583L6.5 5.16667C6.81944 5.65278 7.17708 6.16319 7.57292 6.69792C7.96875 7.23264 8.77778 7.5 10 7.5V9C9.09722 9 8.29514 8.83333 7.59375 8.5C6.89236 8.16667 6.35417 7.70833 5.97917 7.125L5.54167 9.5L7 10.9583V16H5.5V11.5208L3.97917 10.3542L2.6875 16H1.20833ZM6 3.5C5.51389 3.5 5.10069 3.32986 4.76042 2.98958C4.42014 2.64931 4.25 2.23611 4.25 1.75C4.25 1.26389 4.42014 0.850694 4.76042 0.510417C5.10069 0.170139 5.51389 0 6 0C6.48611 0 6.89931 0.170139 7.23958 0.510417C7.57986 0.850694 7.75 1.26389 7.75 1.75C7.75 2.23611 7.57986 2.64931 7.23958 2.98958C6.89931 3.32986 6.48611 3.5 6 3.5Z" fill="white"/>
</svg>
